<svg width="550" height="124" viewBox="0 0 550 124" fill="none" xmlns="http://www.w3.org/2000/svg">
<path d="M0 20C0 8.95431 8.9543 0 20 0L530 0C541.046 0 550 8.9543 550 20V58.0303C550 71.6284 543.092 84.2953 531.66 91.6585L491.34 117.628C484.881 121.788 477.362 124 469.68 124H20C8.95429 124 0 115.046 0 104V20Z" fill="#98B3DE"/>
<path d="M186.961 64.45C187.261 64.45 187.411 64.3167 187.411 64.05V53.2C187.411 52.9333 187.261 52.7667 186.961 52.7C185.828 52.5333 184.778 52.45 183.811 52.45C180.944 52.45 178.844 52.9167 177.511 53.85C176.211 54.7833 175.561 56.2 175.561 58.1C175.561 62.3333 178.528 64.45 184.461 64.45H186.961ZM190.211 84C189.444 84 188.778 83.7167 188.211 83.15C187.678 82.5833 187.411 81.9167 187.411 81.15V70.2C187.411 69.9 187.261 69.75 186.961 69.75H184.661C182.761 69.75 181.428 70 180.661 70.5C179.928 71 179.261 72.05 178.661 73.65L175.861 81.35C175.561 82.15 175.044 82.8 174.311 83.3C173.611 83.7667 172.844 84 172.011 84H170.461C169.761 84 169.211 83.7167 168.811 83.15C168.444 82.5833 168.394 81.9833 168.661 81.35L171.661 73.5C172.761 70.5667 174.128 68.6 175.761 67.6C175.794 67.6 175.811 67.5667 175.811 67.5C175.811 67.4667 175.794 67.45 175.761 67.45C173.594 66.7167 171.861 65.45 170.561 63.65C169.294 61.85 168.661 59.7667 168.661 57.4C168.661 54.1 169.878 51.55 172.311 49.75C174.744 47.9167 178.411 47 183.311 47C185.944 47 188.678 47.1333 191.511 47.4C192.278 47.4667 192.928 47.8167 193.461 48.45C194.028 49.0833 194.311 49.8 194.311 50.6V81.15C194.311 81.9167 194.028 82.5833 193.461 83.15C192.894 83.7167 192.228 84 191.461 84H190.211ZM223.309 83.6L214.309 60.65C214.043 60.0167 214.093 59.4167 214.459 58.85C214.859 58.2833 215.409 58 216.109 58H217.709C218.543 58 219.293 58.25 219.959 58.75C220.626 59.25 221.093 59.9 221.359 60.7L226.559 77.1C226.559 77.1333 226.576 77.15 226.609 77.15C226.643 77.15 226.659 77.1333 226.659 77.1L231.859 60.7C232.093 59.9 232.543 59.25 233.209 58.75C233.876 58.25 234.643 58 235.509 58H236.809C237.476 58 238.009 58.2833 238.409 58.85C238.809 59.4167 238.893 60.0167 238.659 60.65L229.859 84.15C228.393 88.05 226.709 90.8333 224.809 92.5C222.943 94.1667 220.359 95.1333 217.059 95.4C216.359 95.4333 215.743 95.2 215.209 94.7C214.709 94.2333 214.459 93.65 214.459 92.95C214.459 92.25 214.709 91.6333 215.209 91.1C215.709 90.6 216.326 90.3167 217.059 90.25C218.693 90.05 219.959 89.5167 220.859 88.65C221.759 87.8167 222.576 86.4 223.309 84.4C223.343 84.2667 223.359 84.1333 223.359 84C223.359 83.8667 223.343 83.7333 223.309 83.6ZM252.694 77.1C249.027 77.1 246.46 76.45 244.994 75.15C243.527 73.8167 242.794 71.5167 242.794 68.25V60.85C242.794 60.0833 243.06 59.4167 243.594 58.85C244.16 58.2833 244.827 58 245.594 58H246.344C247.11 58 247.777 58.2833 248.344 58.85C248.91 59.4167 249.194 60.0833 249.194 60.85V66.95C249.194 69.05 249.494 70.4167 250.094 71.05C250.727 71.6833 251.977 72 253.844 72C255.677 72 257.31 71.6833 258.744 71.05C258.977 70.95 259.094 70.7333 259.094 70.4V60.85C259.094 60.0833 259.377 59.4167 259.944 58.85C260.51 58.2833 261.177 58 261.944 58H262.794C263.56 58 264.21 58.2833 264.744 58.85C265.31 59.4167 265.594 60.0833 265.594 60.85V81.15C265.594 81.9167 265.31 82.5833 264.744 83.15C264.21 83.7167 263.56 84 262.794 84H261.944C261.177 84 260.51 83.7167 259.944 83.15C259.377 82.5833 259.094 81.9167 259.094 81.15V76.25C259.094 76.15 259.044 76.0667 258.944 76C258.877 75.9333 258.794 75.9167 258.694 75.95C256.76 76.7167 254.76 77.1 252.694 77.1ZM283.093 62.15C281.393 62.15 280.076 62.6333 279.143 63.6C278.243 64.5333 277.676 66.05 277.443 68.15C277.443 68.4167 277.576 68.55 277.843 68.55H287.643C287.91 68.55 288.043 68.4167 288.043 68.15C287.91 64.15 286.26 62.15 283.093 62.15ZM284.343 84.5C279.976 84.5 276.61 83.3667 274.243 81.1C271.91 78.8 270.743 75.4333 270.743 71C270.743 66.6 271.793 63.25 273.893 60.95C275.993 58.65 279.026 57.5 282.993 57.5C290.393 57.5 294.193 61.7 294.393 70.1C294.426 70.9 294.143 71.5667 293.543 72.1C292.943 72.6333 292.243 72.9 291.443 72.9H277.793C277.493 72.9 277.376 73.05 277.443 73.35C277.676 75.5833 278.41 77.2167 279.643 78.25C280.91 79.25 282.743 79.75 285.143 79.75C286.643 79.75 288.31 79.5 290.143 79C290.743 78.8333 291.293 78.9333 291.793 79.3C292.326 79.6667 292.593 80.1667 292.593 80.8C292.593 81.5667 292.36 82.25 291.893 82.85C291.46 83.4167 290.876 83.7667 290.143 83.9C288.276 84.3 286.343 84.5 284.343 84.5ZM302.588 84C301.821 84 301.155 83.7167 300.588 83.15C300.055 82.5833 299.788 81.9167 299.788 81.15V60.85C299.788 60.0833 300.055 59.4167 300.588 58.85C301.155 58.2833 301.821 58 302.588 58H303.688C304.455 58 305.121 58.2833 305.688 58.85C306.255 59.4167 306.538 60.0833 306.538 60.85V67.55C306.538 67.85 306.688 68 306.988 68H315.388C315.688 68 315.838 67.85 315.838 67.55V60.85C315.838 60.0833 316.121 59.4167 316.688 58.85C317.255 58.2833 317.921 58 318.688 58H319.788C320.555 58 321.205 58.2833 321.738 58.85C322.305 59.4167 322.588 60.0833 322.588 60.85V81.15C322.588 81.9167 322.305 82.5833 321.738 83.15C321.205 83.7167 320.555 84 319.788 84H318.688C317.921 84 317.255 83.7167 316.688 83.15C316.121 82.5833 315.838 81.9167 315.838 81.15V73.15C315.838 72.85 315.688 72.7 315.388 72.7H306.988C306.688 72.7 306.538 72.85 306.538 73.15V81.15C306.538 81.9167 306.255 82.5833 305.688 83.15C305.121 83.7167 304.455 84 303.688 84H302.588ZM332.325 84C331.559 84 330.892 83.7167 330.325 83.15C329.759 82.5833 329.475 81.9167 329.475 81.15V60.85C329.475 60.0833 329.759 59.4167 330.325 58.85C330.892 58.2833 331.559 58 332.325 58H333.275C334.042 58 334.709 58.2833 335.275 58.85C335.842 59.4167 336.125 60.0833 336.125 60.85V74.9L336.175 74.95L336.225 74.9L344.275 60.45C345.209 58.8167 346.625 58 348.525 58H349.625C350.392 58 351.059 58.2833 351.625 58.85C352.192 59.4167 352.475 60.0833 352.475 60.85V81.15C352.475 81.9167 352.192 82.5833 351.625 83.15C351.059 83.7167 350.392 84 349.625 84H348.675C347.909 84 347.242 83.7167 346.675 83.15C346.109 82.5833 345.825 81.9167 345.825 81.15V67.1L345.775 67.05L345.725 67.1L337.675 81.55C336.742 83.1833 335.325 84 333.425 84H332.325ZM362.208 84C361.442 84 360.775 83.7167 360.208 83.15C359.642 82.5833 359.358 81.9167 359.358 81.15V60.85C359.358 60.0833 359.642 59.4167 360.208 58.85C360.775 58.2833 361.442 58 362.208 58H363.208C363.975 58 364.642 58.2833 365.208 58.85C365.775 59.4167 366.058 60.0833 366.058 60.85V68.6C366.058 68.6333 366.075 68.65 366.108 68.65H366.158L373.758 60.1C374.992 58.7 376.558 58 378.458 58H380.558C381.092 58 381.458 58.25 381.658 58.75C381.892 59.25 381.825 59.7 381.458 60.1L372.308 70.2C372.142 70.4 372.142 70.6167 372.308 70.85L381.558 81.85C381.925 82.2833 381.975 82.75 381.708 83.25C381.475 83.75 381.092 84 380.558 84H378.458C376.558 84 375.008 83.2667 373.808 81.8L366.158 72.55C366.158 72.5167 366.142 72.5 366.108 72.5C366.075 72.5 366.058 72.5167 366.058 72.55V81.15C366.058 81.9167 365.775 82.5833 365.208 83.15C364.642 83.7167 363.975 84 363.208 84H362.208Z" fill="#001D5A"/>
</svg>
