<svg width="550" height="124" viewBox="0 0 550 124" fill="none" xmlns="http://www.w3.org/2000/svg">
<path d="M0 20C0 8.95431 8.9543 0 20 0H530C541.046 0 550 8.95431 550 20V57.5148C550 71.068 543.137 83.6993 531.766 91.0743L490.93 117.56C484.449 121.763 476.889 124 469.164 124H20C8.9543 124 0 115.046 0 104V20Z" fill="#98B3DE"/>
<path d="M172.874 64.45C173.174 64.45 173.324 64.3167 173.324 64.05V53.2C173.324 52.9333 173.174 52.7667 172.874 52.7C171.741 52.5333 170.691 52.45 169.724 52.45C166.857 52.45 164.757 52.9167 163.424 53.85C162.124 54.7833 161.474 56.2 161.474 58.1C161.474 62.3333 164.441 64.45 170.374 64.45H172.874ZM176.124 84C175.357 84 174.691 83.7167 174.124 83.15C173.591 82.5833 173.324 81.9167 173.324 81.15V70.2C173.324 69.9 173.174 69.75 172.874 69.75H170.574C168.674 69.75 167.341 70 166.574 70.5C165.841 71 165.174 72.05 164.574 73.65L161.774 81.35C161.474 82.15 160.957 82.8 160.224 83.3C159.524 83.7667 158.757 84 157.924 84H156.374C155.674 84 155.124 83.7167 154.724 83.15C154.357 82.5833 154.307 81.9833 154.574 81.35L157.574 73.5C158.674 70.5667 160.041 68.6 161.674 67.6C161.707 67.6 161.724 67.5667 161.724 67.5C161.724 67.4667 161.707 67.45 161.674 67.45C159.507 66.7167 157.774 65.45 156.474 63.65C155.207 61.85 154.574 59.7667 154.574 57.4C154.574 54.1 155.791 51.55 158.224 49.75C160.657 47.9167 164.324 47 169.224 47C171.857 47 174.591 47.1333 177.424 47.4C178.191 47.4667 178.841 47.8167 179.374 48.45C179.941 49.0833 180.224 49.8 180.224 50.6V81.15C180.224 81.9167 179.941 82.5833 179.374 83.15C178.807 83.7167 178.141 84 177.374 84H176.124ZM209.222 83.6L200.222 60.65C199.956 60.0167 200.006 59.4167 200.372 58.85C200.772 58.2833 201.322 58 202.022 58H203.622C204.456 58 205.206 58.25 205.872 58.75C206.539 59.25 207.006 59.9 207.272 60.7L212.472 77.1C212.472 77.1333 212.489 77.15 212.522 77.15C212.556 77.15 212.572 77.1333 212.572 77.1L217.772 60.7C218.006 59.9 218.456 59.25 219.122 58.75C219.789 58.25 220.556 58 221.422 58H222.722C223.389 58 223.922 58.2833 224.322 58.85C224.722 59.4167 224.806 60.0167 224.572 60.65L215.772 84.15C214.306 88.05 212.622 90.8333 210.722 92.5C208.856 94.1667 206.272 95.1333 202.972 95.4C202.272 95.4333 201.656 95.2 201.122 94.7C200.622 94.2333 200.372 93.65 200.372 92.95C200.372 92.25 200.622 91.6333 201.122 91.1C201.622 90.6 202.239 90.3167 202.972 90.25C204.606 90.05 205.872 89.5167 206.772 88.65C207.672 87.8167 208.489 86.4 209.222 84.4C209.256 84.2667 209.272 84.1333 209.272 84C209.272 83.8667 209.256 83.7333 209.222 83.6ZM238.607 77.1C234.94 77.1 232.374 76.45 230.907 75.15C229.44 73.8167 228.707 71.5167 228.707 68.25V60.85C228.707 60.0833 228.974 59.4167 229.507 58.85C230.074 58.2833 230.74 58 231.507 58H232.257C233.024 58 233.69 58.2833 234.257 58.85C234.824 59.4167 235.107 60.0833 235.107 60.85V66.95C235.107 69.05 235.407 70.4167 236.007 71.05C236.64 71.6833 237.89 72 239.757 72C241.59 72 243.224 71.6833 244.657 71.05C244.89 70.95 245.007 70.7333 245.007 70.4V60.85C245.007 60.0833 245.29 59.4167 245.857 58.85C246.424 58.2833 247.09 58 247.857 58H248.707C249.474 58 250.124 58.2833 250.657 58.85C251.224 59.4167 251.507 60.0833 251.507 60.85V81.15C251.507 81.9167 251.224 82.5833 250.657 83.15C250.124 83.7167 249.474 84 248.707 84H247.857C247.09 84 246.424 83.7167 245.857 83.15C245.29 82.5833 245.007 81.9167 245.007 81.15V76.25C245.007 76.15 244.957 76.0667 244.857 76C244.79 75.9333 244.707 75.9167 244.607 75.95C242.674 76.7167 240.674 77.1 238.607 77.1ZM261.256 84C260.489 84 259.823 83.7167 259.256 83.15C258.689 82.5833 258.406 81.9167 258.406 81.15V60.85C258.406 60.0833 258.689 59.4167 259.256 58.85C259.823 58.2833 260.489 58 261.256 58H262.206C262.973 58 263.639 58.2833 264.206 58.85C264.773 59.4167 265.056 60.0833 265.056 60.85V74.9L265.106 74.95L265.156 74.9L273.206 60.45C274.139 58.8167 275.556 58 277.456 58H278.556C279.323 58 279.989 58.2833 280.556 58.85C281.123 59.4167 281.406 60.0833 281.406 60.85V81.15C281.406 81.9167 281.123 82.5833 280.556 83.15C279.989 83.7167 279.323 84 278.556 84H277.606C276.839 84 276.173 83.7167 275.606 83.15C275.039 82.5833 274.756 81.9167 274.756 81.15V67.1L274.706 67.05L274.656 67.1L266.606 81.55C265.673 83.1833 264.256 84 262.356 84H261.256ZM289.339 63.1C288.639 63.1 288.039 62.85 287.539 62.35C287.039 61.85 286.789 61.25 286.789 60.55C286.789 59.85 287.039 59.25 287.539 58.75C288.039 58.25 288.639 58 289.339 58H307.439C308.139 58 308.739 58.25 309.239 58.75C309.739 59.25 309.989 59.85 309.989 60.55C309.989 61.25 309.739 61.85 309.239 62.35C308.739 62.85 308.139 63.1 307.439 63.1H302.289C301.989 63.1 301.839 63.2333 301.839 63.5V81.15C301.839 81.9167 301.556 82.5833 300.989 83.15C300.422 83.7167 299.756 84 298.989 84H297.789C297.022 84 296.356 83.7167 295.789 83.15C295.222 82.5833 294.939 81.9167 294.939 81.15V63.5C294.939 63.2333 294.789 63.1 294.489 63.1H289.339ZM325.988 62.15C324.288 62.15 322.972 62.6333 322.038 63.6C321.138 64.5333 320.572 66.05 320.338 68.15C320.338 68.4167 320.472 68.55 320.738 68.55H330.538C330.805 68.55 330.938 68.4167 330.938 68.15C330.805 64.15 329.155 62.15 325.988 62.15ZM327.238 84.5C322.872 84.5 319.505 83.3667 317.138 81.1C314.805 78.8 313.638 75.4333 313.638 71C313.638 66.6 314.688 63.25 316.788 60.95C318.888 58.65 321.922 57.5 325.888 57.5C333.288 57.5 337.088 61.7 337.288 70.1C337.322 70.9 337.038 71.5667 336.438 72.1C335.838 72.6333 335.138 72.9 334.338 72.9H320.688C320.388 72.9 320.272 73.05 320.338 73.35C320.572 75.5833 321.305 77.2167 322.538 78.25C323.805 79.25 325.638 79.75 328.038 79.75C329.538 79.75 331.205 79.5 333.038 79C333.638 78.8333 334.188 78.9333 334.688 79.3C335.222 79.6667 335.488 80.1667 335.488 80.8C335.488 81.5667 335.255 82.25 334.788 82.85C334.355 83.4167 333.772 83.7667 333.038 83.9C331.172 84.3 329.238 84.5 327.238 84.5ZM342.633 84.3C341.967 84.3667 341.383 84.1667 340.883 83.7C340.417 83.2333 340.183 82.6667 340.183 82C340.183 81.3333 340.417 80.7333 340.883 80.2C341.383 79.6667 341.983 79.3167 342.683 79.15C344.117 78.7833 345.083 77.9833 345.583 76.75C346.083 75.5167 346.333 73.4 346.333 70.4V60.85C346.333 60.0833 346.617 59.4167 347.183 58.85C347.75 58.2833 348.417 58 349.183 58H364.683C365.45 58 366.117 58.2833 366.683 58.85C367.25 59.4167 367.533 60.0833 367.533 60.85V81.15C367.533 81.9167 367.25 82.5833 366.683 83.15C366.117 83.7167 365.45 84 364.683 84H363.783C363.017 84 362.35 83.7167 361.783 83.15C361.217 82.5833 360.933 81.9167 360.933 81.15V63.45C360.933 63.15 360.783 63 360.483 63H353.183C352.917 63 352.783 63.15 352.783 63.45V71.35C352.783 75.75 352.05 78.9 350.583 80.8C349.15 82.6667 346.5 83.8333 342.633 84.3ZM380.922 70.5V78.9C380.922 79.1667 381.072 79.3333 381.372 79.4C382.272 79.5667 383.072 79.65 383.772 79.65C385.905 79.65 387.455 79.2333 388.422 78.4C389.422 77.5333 389.922 76.2 389.922 74.4C389.922 72.9333 389.388 71.8 388.322 71C387.288 70.1667 385.738 69.75 383.672 69.75C382.938 69.75 382.155 69.8333 381.322 70C381.055 70.0667 380.922 70.2333 380.922 70.5ZM377.222 84.15C376.422 84.05 375.755 83.6833 375.222 83.05C374.688 82.4167 374.422 81.7 374.422 80.9V60.85C374.422 60.0833 374.705 59.4167 375.272 58.85C375.838 58.2833 376.505 58 377.272 58H378.122C378.888 58 379.538 58.2833 380.072 58.85C380.638 59.4167 380.922 60.0833 380.922 60.85V64.8C380.922 64.9 380.972 65 381.072 65.1C381.172 65.2 381.272 65.2333 381.372 65.2C382.705 65 383.805 64.9 384.672 64.9C388.372 64.9 391.205 65.75 393.172 67.45C395.172 69.15 396.172 71.4667 396.172 74.4C396.172 77.8 395.122 80.3333 393.022 82C390.922 83.6667 387.638 84.5 383.172 84.5C380.972 84.5 378.988 84.3833 377.222 84.15Z" fill="#001D5A"/>
</svg>
