<svg width="324" height="209" viewBox="0 0 324 209" fill="none" xmlns="http://www.w3.org/2000/svg">
<path d="M0 0H324V172.107C324 179.437 319.99 186.179 313.55 189.679L282.467 206.572C279.535 208.166 276.252 209 272.916 209H15C6.71572 209 0 202.284 0 194V0Z" fill="#292E3B"/>
<path d="M144.25 52.5L132.5 60.1212M132.5 60.1212L144.25 67.25M132.5 60.1212C132.5 60.1212 175.236 60.1212 191.75 60.1212C204.992 60.1212 230.594 60.1212 240.219 60.1212C242.711 60.1212 245.148 59.5003 247.34 58.3145L284.887 38.0035C289.731 35.3829 292.75 30.3181 292.75 24.8103C292.75 15.7494 292.75 6.5 292.75 6.5" stroke="#98B3DE" stroke-width="4" stroke-linecap="round" stroke-linejoin="round"/>
</svg>
