<svg width="648" height="418" viewBox="0 0 648 418" fill="none" xmlns="http://www.w3.org/2000/svg">
<path d="M0 0H648V344.213C648 358.873 639.981 372.358 627.101 379.358L564.933 413.145C559.071 416.331 552.505 418 545.833 418H30C13.4314 418 0 404.569 0 388V0Z" fill="#292E3B"/>
<path d="M288.5 105L265 120.242M265 120.242L288.5 134.5M265 120.242C265 120.242 350.471 120.242 383.5 120.242C409.985 120.242 461.188 120.242 480.438 120.242C485.422 120.242 490.296 119.001 494.68 116.629L569.774 76.007C579.463 70.7658 585.5 60.6363 585.5 49.6205C585.5 31.4988 585.5 13 585.5 13" stroke="#98B3DE" stroke-width="8" stroke-linecap="round" stroke-linejoin="round"/>
</svg>
