<svg width="555" height="180" viewBox="0 0 555 180" fill="none" xmlns="http://www.w3.org/2000/svg">
<path d="M0 20C0 8.9543 8.95431 0 20 0H535C546.046 0 555 8.95431 555 20V122.48C555 132.491 550.007 141.842 541.687 147.411L503.098 173.241C496.515 177.647 488.771 180 480.848 180H20C8.9543 180 0 171.046 0 160V20Z" fill="#98B3DE"/>
<path d="M109.547 146.038V146.538H110.047H129.116C132.154 146.538 134.616 144.076 134.616 141.038V94.3153C134.616 92.3766 136.188 90.805 138.127 90.805C140.065 90.805 141.637 92.3766 141.637 94.3153V149C141.637 151.485 139.622 153.5 137.137 153.5H42.8613C40.3761 153.5 38.3613 151.485 38.3613 149V94.3193C38.3613 92.3784 39.9347 90.805 41.8756 90.805C43.8165 90.805 45.3899 92.3784 45.3899 94.3193V141.038C45.3899 144.076 47.8524 146.538 50.8899 146.538H69.9517H70.4517V146.038V111.229C70.4517 108.743 72.4665 106.729 74.9517 106.729H105.047C107.532 106.729 109.547 108.743 109.547 111.229V146.038ZM102.034 146.546H102.534V146.046V119.191C102.534 116.153 100.072 113.691 97.0341 113.691H82.9723C79.9347 113.691 77.4723 116.153 77.4723 119.191V146.046V146.546H77.9723H102.034ZM86.8335 20.8518C88.5882 19.1099 91.4196 19.11 93.1742 20.852L153.792 81.033C155.168 82.3996 155.167 84.626 153.79 85.9915C152.428 87.3416 150.232 87.3408 148.871 85.9897L93.8788 31.3999C91.7342 29.2711 88.2738 29.2711 86.1292 31.3999L31.1368 85.9898C29.7754 87.3412 27.5792 87.3428 26.2159 85.9933C24.8356 84.627 24.834 82.3974 26.2124 81.0291L86.8335 20.8518ZM98.5222 74.382C98.5222 69.7075 94.7016 65.9202 90.0016 65.9202C85.3016 65.9202 81.481 69.7075 81.481 74.382C81.481 79.0565 85.3015 82.8439 90.0016 82.8439C94.7016 82.8439 98.5222 79.0566 98.5222 74.382ZM90.0016 58.9583C98.5756 58.9583 105.543 65.8797 105.543 74.382C105.543 82.8843 98.5756 89.8058 90.0016 89.8058C81.4276 89.8058 74.4604 82.8844 74.4604 74.382C74.4604 65.8797 81.4275 58.9583 90.0016 58.9583Z" fill="#001D5A" stroke="#001D5A"/>
<path d="M183.729 106.168C183.113 106.252 182.567 106.084 182.091 105.664C181.643 105.244 181.419 104.726 181.419 104.11C181.419 103.466 181.629 102.906 182.049 102.43C182.497 101.954 183.043 101.632 183.687 101.464C185.171 101.072 186.193 100.148 186.753 98.692C187.313 97.236 187.593 94.73 187.593 91.174V77.734C187.593 77.09 187.817 76.53 188.265 76.054C188.741 75.578 189.301 75.34 189.945 75.34H205.863C206.507 75.34 207.053 75.578 207.501 76.054C207.977 76.53 208.215 77.09 208.215 77.734V103.606C208.215 104.25 207.977 104.81 207.501 105.286C207.053 105.762 206.507 106 205.863 106H204.729C204.085 106 203.525 105.762 203.049 105.286C202.573 104.81 202.335 104.25 202.335 103.606V80.464C202.335 80.212 202.223 80.086 201.999 80.086H193.809C193.585 80.086 193.473 80.212 193.473 80.464V91.09C193.473 96.382 192.759 100.092 191.331 102.22C189.931 104.348 187.397 105.664 183.729 106.168ZM216.834 106C216.19 106 215.63 105.762 215.154 105.286C214.678 104.81 214.44 104.25 214.44 103.606V86.554C214.44 85.91 214.678 85.35 215.154 84.874C215.63 84.398 216.19 84.16 216.834 84.16H217.632C218.276 84.16 218.836 84.398 219.312 84.874C219.788 85.35 220.026 85.91 220.026 86.554V98.356L220.068 98.398L220.11 98.356L226.872 86.218C227.656 84.846 228.846 84.16 230.442 84.16H231.366C232.01 84.16 232.57 84.398 233.046 84.874C233.522 85.35 233.76 85.91 233.76 86.554V103.606C233.76 104.25 233.522 104.81 233.046 105.286C232.57 105.762 232.01 106 231.366 106H230.568C229.924 106 229.364 105.762 228.888 105.286C228.412 104.81 228.174 104.25 228.174 103.606V91.804L228.132 91.762L228.09 91.804L221.328 103.942C220.544 105.314 219.354 106 217.758 106H216.834ZM247.438 100.204C244.358 100.204 242.202 99.658 240.97 98.566C239.738 97.446 239.122 95.514 239.122 92.77V86.554C239.122 85.91 239.346 85.35 239.794 84.874C240.27 84.398 240.83 84.16 241.474 84.16H242.104C242.748 84.16 243.308 84.398 243.784 84.874C244.26 85.35 244.498 85.91 244.498 86.554V91.678C244.498 93.442 244.75 94.59 245.254 95.122C245.786 95.654 246.836 95.92 248.404 95.92C249.944 95.92 251.316 95.654 252.52 95.122C252.716 95.038 252.814 94.856 252.814 94.576V86.554C252.814 85.91 253.052 85.35 253.528 84.874C254.004 84.398 254.564 84.16 255.208 84.16H255.922C256.566 84.16 257.112 84.398 257.56 84.874C258.036 85.35 258.274 85.91 258.274 86.554V103.606C258.274 104.25 258.036 104.81 257.56 105.286C257.112 105.762 256.566 106 255.922 106H255.208C254.564 106 254.004 105.762 253.528 105.286C253.052 104.81 252.814 104.25 252.814 103.606V99.49C252.814 99.406 252.772 99.336 252.688 99.28C252.632 99.224 252.562 99.21 252.478 99.238C250.854 99.882 249.174 100.204 247.438 100.204ZM266.421 106C265.777 106 265.217 105.762 264.741 105.286C264.293 104.81 264.069 104.25 264.069 103.606V86.554C264.069 85.91 264.293 85.35 264.741 84.874C265.217 84.398 265.777 84.16 266.421 84.16H267.345C267.989 84.16 268.549 84.398 269.025 84.874C269.501 85.35 269.739 85.91 269.739 86.554V92.182C269.739 92.434 269.865 92.56 270.117 92.56H277.173C277.425 92.56 277.551 92.434 277.551 92.182V86.554C277.551 85.91 277.789 85.35 278.265 84.874C278.741 84.398 279.301 84.16 279.945 84.16H280.869C281.513 84.16 282.059 84.398 282.507 84.874C282.983 85.35 283.221 85.91 283.221 86.554V103.606C283.221 104.25 282.983 104.81 282.507 105.286C282.059 105.762 281.513 106 280.869 106H279.945C279.301 106 278.741 105.762 278.265 105.286C277.789 104.81 277.551 104.25 277.551 103.606V96.886C277.551 96.634 277.425 96.508 277.173 96.508H270.117C269.865 96.508 269.739 96.634 269.739 96.886V103.606C269.739 104.25 269.501 104.81 269.025 105.286C268.549 105.762 267.989 106 267.345 106H266.421ZM312.148 106C311.504 106 310.944 105.762 310.468 105.286C310.02 104.81 309.796 104.25 309.796 103.606V86.554C309.796 85.91 310.02 85.35 310.468 84.874C310.944 84.398 311.504 84.16 312.148 84.16H312.862C313.506 84.16 314.066 84.398 314.542 84.874C315.018 85.35 315.256 85.91 315.256 86.554V103.606C315.256 104.25 315.018 104.81 314.542 105.286C314.066 105.762 313.506 106 312.862 106H312.148ZM296.818 102.346C298.61 102.346 299.912 101.996 300.724 101.296C301.564 100.568 301.984 99.448 301.984 97.936C301.984 95.332 300.248 94.03 296.776 94.03C296.16 94.03 295.502 94.1 294.802 94.24C294.578 94.296 294.466 94.436 294.466 94.66V101.716C294.466 101.94 294.578 102.08 294.802 102.136C295.558 102.276 296.23 102.346 296.818 102.346ZM297.616 89.956C300.724 89.956 303.104 90.67 304.756 92.098C306.436 93.526 307.276 95.472 307.276 97.936C307.276 100.792 306.394 102.92 304.63 104.32C302.866 105.72 300.108 106.42 296.356 106.42C294.48 106.42 292.8 106.322 291.316 106.126C290.644 106.042 290.084 105.734 289.636 105.202C289.216 104.67 289.006 104.068 289.006 103.396V86.554C289.006 85.91 289.23 85.35 289.678 84.874C290.154 84.398 290.714 84.16 291.358 84.16H292.072C292.716 84.16 293.276 84.398 293.752 84.874C294.228 85.35 294.466 85.91 294.466 86.554V89.872C294.466 89.956 294.494 90.04 294.55 90.124C294.634 90.208 294.718 90.236 294.802 90.208C295.922 90.04 296.86 89.956 297.616 89.956ZM323.434 106C322.79 106 322.23 105.762 321.754 105.286C321.278 104.81 321.04 104.25 321.04 103.606V86.554C321.04 85.91 321.278 85.35 321.754 84.874C322.23 84.398 322.79 84.16 323.434 84.16H324.232C324.876 84.16 325.436 84.398 325.912 84.874C326.388 85.35 326.626 85.91 326.626 86.554V98.356L326.668 98.398L326.71 98.356L333.472 86.218C334.256 84.846 335.446 84.16 337.042 84.16H337.966C338.61 84.16 339.17 84.398 339.646 84.874C340.122 85.35 340.36 85.91 340.36 86.554V103.606C340.36 104.25 340.122 104.81 339.646 105.286C339.17 105.762 338.61 106 337.966 106H337.168C336.524 106 335.964 105.762 335.488 105.286C335.012 104.81 334.774 104.25 334.774 103.606V91.804L334.732 91.762L334.69 91.804L327.928 103.942C327.144 105.314 325.954 106 324.358 106H323.434ZM337 74.374H337.084C337.7 74.374 338.204 74.584 338.596 75.004C338.988 75.424 339.086 75.914 338.89 76.474C338.386 78.042 337.392 79.302 335.908 80.254C334.452 81.178 332.716 81.64 330.7 81.64C328.684 81.64 326.934 81.178 325.45 80.254C323.994 79.302 323.014 78.042 322.51 76.474C322.314 75.914 322.412 75.424 322.804 75.004C323.196 74.584 323.7 74.374 324.316 74.374H324.4C325.324 74.374 326.22 75.004 327.088 76.264C327.872 77.412 329.076 77.986 330.7 77.986C332.324 77.986 333.528 77.412 334.312 76.264C335.18 75.004 336.076 74.374 337 74.374ZM360.471 106C359.827 106 359.267 105.762 358.791 105.286C358.315 104.81 358.077 104.25 358.077 103.606V86.554C358.077 85.91 358.315 85.35 358.791 84.874C359.267 84.398 359.827 84.16 360.471 84.16H361.311C361.955 84.16 362.515 84.398 362.991 84.874C363.467 85.35 363.705 85.91 363.705 86.554V93.064C363.705 93.092 363.719 93.106 363.747 93.106H363.789L370.173 85.924C371.209 84.748 372.525 84.16 374.121 84.16H375.885C376.333 84.16 376.641 84.37 376.809 84.79C377.005 85.21 376.949 85.588 376.641 85.924L368.955 94.408C368.815 94.576 368.815 94.758 368.955 94.954L376.725 104.194C377.033 104.558 377.075 104.95 376.851 105.37C376.655 105.79 376.333 106 375.885 106H374.121C372.525 106 371.223 105.384 370.215 104.152L363.789 96.382C363.789 96.354 363.775 96.34 363.747 96.34C363.719 96.34 363.705 96.354 363.705 96.382V103.606C363.705 104.25 363.467 104.81 362.991 105.286C362.515 105.762 361.955 106 361.311 106H360.471ZM391.787 95.5C387.783 95.5 385.781 96.732 385.781 99.196C385.781 100.092 386.033 100.82 386.537 101.38C387.069 101.94 387.741 102.22 388.553 102.22C390.149 102.22 391.437 101.73 392.417 100.75C393.397 99.742 393.887 98.37 393.887 96.634V95.878C393.887 95.626 393.761 95.5 393.509 95.5H391.787ZM387.041 106.42C385.137 106.42 383.555 105.804 382.295 104.572C381.063 103.312 380.447 101.688 380.447 99.7C380.447 97.264 381.371 95.374 383.219 94.03C385.095 92.686 387.951 92.014 391.787 92.014H393.509C393.761 92.014 393.887 91.888 393.887 91.636V91.3C393.887 90.012 393.579 89.116 392.963 88.612C392.347 88.08 391.255 87.814 389.687 87.814C388.063 87.814 386.075 88.108 383.723 88.696C383.219 88.836 382.757 88.752 382.337 88.444C381.917 88.108 381.707 87.674 381.707 87.142C381.707 86.498 381.903 85.924 382.295 85.42C382.687 84.888 383.191 84.566 383.807 84.454C385.935 83.978 387.937 83.74 389.813 83.74C393.397 83.74 395.903 84.384 397.331 85.672C398.759 86.96 399.473 89.214 399.473 92.434V103.606C399.473 104.25 399.235 104.81 398.759 105.286C398.311 105.762 397.765 106 397.121 106H396.659C395.987 106 395.413 105.776 394.937 105.328C394.461 104.852 394.209 104.278 394.181 103.606V103.018C394.181 102.99 394.167 102.976 394.139 102.976C394.083 102.976 394.055 102.99 394.055 103.018C392.347 105.286 390.009 106.42 387.041 106.42ZM410.29 95.29V95.71C410.29 97.698 410.752 99.28 411.676 100.456C412.6 101.632 413.804 102.22 415.288 102.22C416.884 102.22 418.116 101.66 418.984 100.54C419.852 99.392 420.286 97.726 420.286 95.542V95.5V95.458C420.286 93.386 419.824 91.762 418.9 90.586C418.004 89.382 416.842 88.78 415.414 88.78C413.874 88.78 412.628 89.354 411.676 90.502C410.752 91.65 410.29 93.246 410.29 95.29ZM415.498 106.42C412.082 106.42 409.45 105.426 407.602 103.438C405.754 101.422 404.83 98.538 404.83 94.786V86.386C404.83 82.382 405.88 79.47 407.98 77.65C410.08 75.83 413.426 74.92 418.018 74.92C419.642 74.92 421.07 74.864 422.302 74.752C422.862 74.696 423.338 74.85 423.73 75.214C424.15 75.578 424.36 76.026 424.36 76.558C424.36 77.146 424.164 77.664 423.772 78.112C423.408 78.56 422.932 78.812 422.344 78.868C421.14 78.98 419.74 79.036 418.144 79.036C415.092 79.036 413.006 79.554 411.886 80.59C410.794 81.598 410.248 83.488 410.248 86.26V87.772V87.814C410.304 87.814 410.332 87.786 410.332 87.73C411.872 85.63 414.084 84.58 416.968 84.58C419.432 84.58 421.476 85.574 423.1 87.562C424.752 89.522 425.578 92.168 425.578 95.5C425.578 99 424.696 101.702 422.932 103.606C421.168 105.482 418.69 106.42 415.498 106.42ZM433.15 106C432.506 106 431.946 105.762 431.47 105.286C430.994 104.81 430.756 104.25 430.756 103.606V86.554C430.756 85.91 430.994 85.35 431.47 84.874C431.946 84.398 432.506 84.16 433.15 84.16H433.948C434.592 84.16 435.152 84.398 435.628 84.874C436.104 85.35 436.342 85.91 436.342 86.554V98.356L436.384 98.398L436.426 98.356L443.188 86.218C443.972 84.846 445.162 84.16 446.758 84.16H447.682C448.326 84.16 448.886 84.398 449.362 84.874C449.838 85.35 450.076 85.91 450.076 86.554V103.606C450.076 104.25 449.838 104.81 449.362 105.286C448.886 105.762 448.326 106 447.682 106H446.884C446.24 106 445.68 105.762 445.204 105.286C444.728 104.81 444.49 104.25 444.49 103.606V91.804L444.448 91.762L444.406 91.804L437.644 103.942C436.86 105.314 435.67 106 434.074 106H433.15ZM458.21 106C457.566 106 457.006 105.762 456.53 105.286C456.082 104.81 455.858 104.25 455.858 103.606V86.554C455.858 85.91 456.082 85.35 456.53 84.874C457.006 84.398 457.566 84.16 458.21 84.16H459.134C459.778 84.16 460.338 84.398 460.814 84.874C461.29 85.35 461.528 85.91 461.528 86.554V92.182C461.528 92.434 461.654 92.56 461.906 92.56H468.962C469.214 92.56 469.34 92.434 469.34 92.182V86.554C469.34 85.91 469.578 85.35 470.054 84.874C470.53 84.398 471.09 84.16 471.734 84.16H472.658C473.302 84.16 473.848 84.398 474.296 84.874C474.772 85.35 475.01 85.91 475.01 86.554V103.606C475.01 104.25 474.772 104.81 474.296 105.286C473.848 105.762 473.302 106 472.658 106H471.734C471.09 106 470.53 105.762 470.054 105.286C469.578 104.81 469.34 104.25 469.34 103.606V96.886C469.34 96.634 469.214 96.508 468.962 96.508H461.906C461.654 96.508 461.528 96.634 461.528 96.886V103.606C461.528 104.25 461.29 104.81 460.814 105.286C460.338 105.762 459.778 106 459.134 106H458.21ZM489.699 87.646C488.271 87.646 487.165 88.052 486.381 88.864C485.625 89.648 485.149 90.922 484.953 92.686C484.953 92.91 485.065 93.022 485.289 93.022H493.521C493.745 93.022 493.857 92.91 493.857 92.686C493.745 89.326 492.359 87.646 489.699 87.646ZM490.749 106.42C487.081 106.42 484.253 105.468 482.265 103.564C480.305 101.632 479.325 98.804 479.325 95.08C479.325 91.384 480.207 88.57 481.971 86.638C483.735 84.706 486.283 83.74 489.615 83.74C495.831 83.74 499.023 87.268 499.191 94.324C499.219 94.996 498.981 95.556 498.477 96.004C497.973 96.452 497.385 96.676 496.713 96.676H485.247C484.995 96.676 484.897 96.802 484.953 97.054C485.149 98.93 485.765 100.302 486.801 101.17C487.865 102.01 489.405 102.43 491.421 102.43C492.681 102.43 494.081 102.22 495.621 101.8C496.125 101.66 496.587 101.744 497.007 102.052C497.455 102.36 497.679 102.78 497.679 103.312C497.679 103.956 497.483 104.53 497.091 105.034C496.727 105.51 496.237 105.804 495.621 105.916C494.053 106.252 492.429 106.42 490.749 106.42ZM504.605 88.444C504.017 88.444 503.513 88.234 503.093 87.814C502.673 87.394 502.463 86.89 502.463 86.302C502.463 85.714 502.673 85.21 503.093 84.79C503.513 84.37 504.017 84.16 504.605 84.16H519.809C520.397 84.16 520.901 84.37 521.321 84.79C521.741 85.21 521.951 85.714 521.951 86.302C521.951 86.89 521.741 87.394 521.321 87.814C520.901 88.234 520.397 88.444 519.809 88.444H515.483C515.231 88.444 515.105 88.556 515.105 88.78V103.606C515.105 104.25 514.867 104.81 514.391 105.286C513.915 105.762 513.355 106 512.711 106H511.703C511.059 106 510.499 105.762 510.023 105.286C509.547 104.81 509.309 104.25 509.309 103.606V88.78C509.309 88.556 509.183 88.444 508.931 88.444H504.605Z" fill="#001D5A"/>
</svg>
