<svg width="555" height="180" viewBox="0 0 555 180" fill="none" xmlns="http://www.w3.org/2000/svg">
<path d="M0 20C0 8.9543 8.95431 0 20 0H535C546.046 0 555 8.95431 555 20V122.48C555 132.491 550.007 141.842 541.687 147.411L503.098 173.241C496.515 177.647 488.771 180 480.848 180H20C8.9543 180 0 171.046 0 160V20Z" fill="#98B3DE"/>
<path d="M89.5 55.8488C82.6828 47.2407 72.1738 38.6326 46.1288 38.0009C44.4181 37.9595 43.0229 39.338 43.0229 41.0357C43.0229 53.6296 43.0229 101.308 43.0229 115.409C43.0229 117.107 44.4182 118.44 46.1285 118.496C72.1737 119.34 82.6828 130.796 89.5 139.405M89.5 55.8488C96.3173 47.2407 106.826 38.6326 132.871 38.0009C134.582 37.9595 135.977 39.3071 135.977 41.0047C135.977 55.0826 135.977 101.327 135.977 115.405C135.977 117.102 134.582 118.44 132.872 118.496C106.827 119.34 96.3173 130.796 89.5 139.405M89.5 55.8488V139.405" stroke="#001D5A" stroke-width="7" stroke-linejoin="round"/>
<path d="M133.997 50.2061H147.925C149.623 50.2061 151 51.5934 151 53.3046V134.107C151 136.614 148.068 138.28 145.794 137.261C140.904 135.072 132.744 132.397 122.059 132.397C103.97 132.397 89.5 143.16 89.5 143.16C89.5 143.16 75.0294 132.397 56.9412 132.397C46.256 132.397 38.0956 135.072 33.2058 137.261C30.9316 138.28 28 136.614 28 134.107V53.3046C28 51.5934 29.3767 50.2061 31.075 50.2061H45.003" stroke="#001D5A" stroke-width="7" stroke-linejoin="round"/>
<path d="M221.67 106C220.97 105.888 220.396 105.566 219.948 105.034C219.528 104.474 219.318 103.844 219.318 103.144V102.85C219.318 102.262 219.556 101.8 220.032 101.464C220.536 101.128 221.068 101.03 221.628 101.17C222.944 101.506 224.526 101.674 226.374 101.674C228.81 101.674 230.812 100.904 232.38 99.364C233.976 97.796 234.942 95.584 235.278 92.728C235.334 92.504 235.236 92.392 234.984 92.392H223.224C222.608 92.392 222.076 92.182 221.628 91.762C221.208 91.314 220.998 90.768 220.998 90.124C220.998 89.508 221.208 88.99 221.628 88.57C222.076 88.122 222.608 87.898 223.224 87.898H234.858C235.11 87.898 235.208 87.772 235.152 87.52C234.704 84.972 233.724 83.026 232.212 81.682C230.728 80.338 228.824 79.666 226.5 79.666C224.792 79.666 223.252 79.848 221.88 80.212C221.32 80.352 220.788 80.254 220.284 79.918C219.808 79.582 219.57 79.12 219.57 78.532V78.196C219.57 77.496 219.78 76.88 220.2 76.348C220.648 75.788 221.222 75.452 221.922 75.34C223.49 75.06 225.226 74.92 227.13 74.92C231.638 74.92 235.138 76.306 237.63 79.078C240.15 81.822 241.41 85.686 241.41 90.67C241.41 95.71 240.108 99.602 237.504 102.346C234.928 105.062 231.428 106.42 227.004 106.42C225.044 106.42 223.266 106.28 221.67 106ZM248.116 106C247.472 106 246.912 105.762 246.436 105.286C245.96 104.81 245.722 104.25 245.722 103.606V86.554C245.722 85.91 245.96 85.35 246.436 84.874C246.912 84.398 247.472 84.16 248.116 84.16H248.956C249.6 84.16 250.16 84.398 250.636 84.874C251.112 85.35 251.35 85.91 251.35 86.554V93.064C251.35 93.092 251.364 93.106 251.392 93.106H251.434L257.818 85.924C258.854 84.748 260.17 84.16 261.766 84.16H263.53C263.978 84.16 264.286 84.37 264.454 84.79C264.65 85.21 264.594 85.588 264.286 85.924L256.6 94.408C256.46 94.576 256.46 94.758 256.6 94.954L264.37 104.194C264.678 104.558 264.72 104.95 264.496 105.37C264.3 105.79 263.978 106 263.53 106H261.766C260.17 106 258.868 105.384 257.86 104.152L251.434 96.382C251.434 96.354 251.42 96.34 251.392 96.34C251.364 96.34 251.35 96.354 251.35 96.382V103.606C251.35 104.25 251.112 104.81 250.636 105.286C250.16 105.762 249.6 106 248.956 106H248.116ZM278.508 106.42C275.036 106.42 272.362 105.468 270.486 103.564C268.61 101.632 267.672 98.804 267.672 95.08C267.672 91.412 268.568 88.612 270.36 86.68C272.18 84.72 274.756 83.74 278.088 83.74C279.572 83.74 281 83.838 282.372 84.034C283.016 84.118 283.548 84.412 283.968 84.916C284.388 85.42 284.598 86.008 284.598 86.68C284.598 87.24 284.374 87.688 283.926 88.024C283.506 88.36 283.016 88.472 282.456 88.36C281.364 88.136 280.146 88.024 278.802 88.024C277.038 88.024 275.722 88.584 274.854 89.704C273.986 90.824 273.552 92.616 273.552 95.08C273.552 97.6 274.014 99.406 274.938 100.498C275.862 101.59 277.29 102.136 279.222 102.136C280.594 102.136 281.784 102.01 282.792 101.758C283.324 101.618 283.8 101.716 284.22 102.052C284.668 102.388 284.892 102.822 284.892 103.354C284.892 104.026 284.682 104.614 284.262 105.118C283.87 105.622 283.352 105.93 282.708 106.042C281.28 106.294 279.88 106.42 278.508 106.42ZM292.864 106C292.22 106 291.66 105.762 291.184 105.286C290.708 104.81 290.47 104.25 290.47 103.606V86.554C290.47 85.91 290.708 85.35 291.184 84.874C291.66 84.398 292.22 84.16 292.864 84.16H307.06C307.704 84.16 308.264 84.398 308.74 84.874C309.216 85.35 309.454 85.91 309.454 86.554V103.606C309.454 104.25 309.216 104.81 308.74 105.286C308.264 105.762 307.704 106 307.06 106H306.304C305.66 106 305.1 105.762 304.624 105.286C304.148 104.81 303.91 104.25 303.91 103.606V88.738C303.91 88.486 303.798 88.36 303.574 88.36H296.35C296.126 88.36 296.014 88.486 296.014 88.738V103.606C296.014 104.25 295.776 104.81 295.3 105.286C294.824 105.762 294.264 106 293.62 106H292.864ZM324.148 87.646C322.72 87.646 321.614 88.052 320.83 88.864C320.074 89.648 319.598 90.922 319.402 92.686C319.402 92.91 319.514 93.022 319.738 93.022H327.97C328.194 93.022 328.306 92.91 328.306 92.686C328.194 89.326 326.808 87.646 324.148 87.646ZM325.198 106.42C321.53 106.42 318.702 105.468 316.714 103.564C314.754 101.632 313.774 98.804 313.774 95.08C313.774 91.384 314.656 88.57 316.42 86.638C318.184 84.706 320.732 83.74 324.064 83.74C330.28 83.74 333.472 87.268 333.64 94.324C333.668 94.996 333.43 95.556 332.926 96.004C332.422 96.452 331.834 96.676 331.162 96.676H319.696C319.444 96.676 319.346 96.802 319.402 97.054C319.598 98.93 320.214 100.302 321.25 101.17C322.314 102.01 323.854 102.43 325.87 102.43C327.13 102.43 328.53 102.22 330.07 101.8C330.574 101.66 331.036 101.744 331.456 102.052C331.904 102.36 332.128 102.78 332.128 103.312C332.128 103.956 331.932 104.53 331.54 105.034C331.176 105.51 330.686 105.804 330.07 105.916C328.502 106.252 326.878 106.42 325.198 106.42ZM343.715 92.224V97.936C343.715 99.056 344.191 100.05 345.143 100.918C346.123 101.786 347.257 102.22 348.545 102.22C350.029 102.22 351.205 101.618 352.073 100.414C352.941 99.21 353.375 97.432 353.375 95.08C353.375 90.32 351.765 87.94 348.545 87.94C347.257 87.94 346.123 88.374 345.143 89.242C344.191 90.11 343.715 91.104 343.715 92.224ZM340.565 115.24C339.921 115.24 339.361 115.002 338.885 114.526C338.409 114.05 338.171 113.49 338.171 112.846V86.554C338.171 85.91 338.409 85.35 338.885 84.874C339.361 84.398 339.921 84.16 340.565 84.16H341.069C341.741 84.16 342.315 84.398 342.791 84.874C343.267 85.322 343.519 85.882 343.547 86.554V86.848C343.547 86.876 343.561 86.89 343.589 86.89C343.617 86.89 343.645 86.876 343.673 86.848C344.681 85.728 345.689 84.93 346.697 84.454C347.705 83.978 348.881 83.74 350.225 83.74C352.857 83.74 354.957 84.734 356.525 86.722C358.093 88.682 358.877 91.468 358.877 95.08C358.877 98.58 358.051 101.352 356.399 103.396C354.775 105.412 352.717 106.42 350.225 106.42C347.789 106.42 345.675 105.538 343.883 103.774C343.855 103.746 343.827 103.732 343.799 103.732C343.771 103.732 343.757 103.746 343.757 103.774V112.846C343.757 113.49 343.519 114.05 343.043 114.526C342.595 115.002 342.049 115.24 341.405 115.24H340.565ZM365.79 106C365.146 106 364.586 105.762 364.11 105.286C363.634 104.81 363.396 104.25 363.396 103.606V86.554C363.396 85.91 363.634 85.35 364.11 84.874C364.586 84.398 365.146 84.16 365.79 84.16H366.588C367.232 84.16 367.792 84.398 368.268 84.874C368.744 85.35 368.982 85.91 368.982 86.554V98.356L369.024 98.398L369.066 98.356L375.828 86.218C376.612 84.846 377.802 84.16 379.398 84.16H380.322C380.966 84.16 381.526 84.398 382.002 84.874C382.478 85.35 382.716 85.91 382.716 86.554V103.606C382.716 104.25 382.478 104.81 382.002 105.286C381.526 105.762 380.966 106 380.322 106H379.524C378.88 106 378.32 105.762 377.844 105.286C377.368 104.81 377.13 104.25 377.13 103.606V91.804L377.088 91.762L377.046 91.804L370.284 103.942C369.5 105.314 368.31 106 366.714 106H365.79ZM390.85 106C390.206 106 389.646 105.762 389.17 105.286C388.722 104.81 388.498 104.25 388.498 103.606V86.554C388.498 85.91 388.722 85.35 389.17 84.874C389.646 84.398 390.206 84.16 390.85 84.16H392.026C393.622 84.16 394.77 84.874 395.47 86.302L400.51 96.55C400.51 96.578 400.524 96.592 400.552 96.592L400.594 96.55L405.634 86.302C406.334 84.874 407.482 84.16 409.078 84.16H410.338C410.982 84.16 411.528 84.398 411.976 84.874C412.452 85.35 412.69 85.91 412.69 86.554V103.606C412.69 104.25 412.452 104.81 411.976 105.286C411.528 105.762 410.982 106 410.338 106H409.582C408.938 106 408.378 105.762 407.902 105.286C407.426 104.81 407.188 104.25 407.188 103.606V91.594H407.104L403.702 98.566C403.058 99.854 402.008 100.498 400.552 100.498C399.096 100.498 398.046 99.854 397.402 98.566L393.958 91.594H393.916H393.874V103.606C393.874 104.25 393.636 104.81 393.16 105.286C392.712 105.762 392.166 106 391.522 106H390.85ZM427.384 87.646C425.956 87.646 424.85 88.052 424.066 88.864C423.31 89.648 422.834 90.922 422.638 92.686C422.638 92.91 422.75 93.022 422.974 93.022H431.206C431.43 93.022 431.542 92.91 431.542 92.686C431.43 89.326 430.044 87.646 427.384 87.646ZM428.434 106.42C424.766 106.42 421.938 105.468 419.95 103.564C417.99 101.632 417.01 98.804 417.01 95.08C417.01 91.384 417.892 88.57 419.656 86.638C421.42 84.706 423.968 83.74 427.3 83.74C433.516 83.74 436.708 87.268 436.876 94.324C436.904 94.996 436.666 95.556 436.162 96.004C435.658 96.452 435.07 96.676 434.398 96.676H422.932C422.68 96.676 422.582 96.802 422.638 97.054C422.834 98.93 423.45 100.302 424.486 101.17C425.55 102.01 427.09 102.43 429.106 102.43C430.366 102.43 431.766 102.22 433.306 101.8C433.81 101.66 434.272 101.744 434.692 102.052C435.14 102.36 435.364 102.78 435.364 103.312C435.364 103.956 435.168 104.53 434.776 105.034C434.412 105.51 433.922 105.804 433.306 105.916C431.738 106.252 430.114 106.42 428.434 106.42ZM443.76 106C443.116 106 442.556 105.762 442.08 105.286C441.632 104.81 441.408 104.25 441.408 103.606V86.554C441.408 85.91 441.632 85.35 442.08 84.874C442.556 84.398 443.116 84.16 443.76 84.16H444.684C445.328 84.16 445.888 84.398 446.364 84.874C446.84 85.35 447.078 85.91 447.078 86.554V92.182C447.078 92.434 447.204 92.56 447.456 92.56H454.512C454.764 92.56 454.89 92.434 454.89 92.182V86.554C454.89 85.91 455.128 85.35 455.604 84.874C456.08 84.398 456.64 84.16 457.284 84.16H458.208C458.852 84.16 459.398 84.398 459.846 84.874C460.322 85.35 460.56 85.91 460.56 86.554V103.606C460.56 104.25 460.322 104.81 459.846 105.286C459.398 105.762 458.852 106 458.208 106H457.284C456.64 106 456.08 105.762 455.604 105.286C455.128 104.81 454.89 104.25 454.89 103.606V96.886C454.89 96.634 454.764 96.508 454.512 96.508H447.456C447.204 96.508 447.078 96.634 447.078 96.886V103.606C447.078 104.25 446.84 104.81 446.364 105.286C445.888 105.762 445.328 106 444.684 106H443.76ZM467.227 88.444C466.639 88.444 466.135 88.234 465.715 87.814C465.295 87.394 465.085 86.89 465.085 86.302C465.085 85.714 465.295 85.21 465.715 84.79C466.135 84.37 466.639 84.16 467.227 84.16H482.431C483.019 84.16 483.523 84.37 483.943 84.79C484.363 85.21 484.573 85.714 484.573 86.302C484.573 86.89 484.363 87.394 483.943 87.814C483.523 88.234 483.019 88.444 482.431 88.444H478.105C477.853 88.444 477.727 88.556 477.727 88.78V103.606C477.727 104.25 477.489 104.81 477.013 105.286C476.537 105.762 475.977 106 475.333 106H474.325C473.681 106 473.121 105.762 472.645 105.286C472.169 104.81 471.931 104.25 471.931 103.606V88.78C471.931 88.556 471.805 88.444 471.553 88.444H467.227Z" fill="#001D5A"/>
</svg>
